<?xml version="1.0" standalone="no"?>
<!DOCTYPE svg PUBLIC "-//W3C//DTD SVG 20010904//EN"
 "http://www.w3.org/TR/2001/REC-SVG-20010904/DTD/svg10.dtd">
<svg version="1.0" xmlns="http://www.w3.org/2000/svg"
 width="62.000000pt" height="64.000000pt" viewBox="0 0 62.000000 64.000000"
 preserveAspectRatio="xMidYMid meet">
<metadata>
Created by potrace 1.16, written by Peter Selinger 2001-2019
</metadata>
<g transform="translate(0.000000,64.000000) scale(0.100000,-0.100000)"
fill="#000000" stroke="none">
<path d="M0 320 l0 -320 310 0 c266 0 310 2 310 15 0 8 -6 12 -13 10 -6 -3
-40 13 -75 35 l-63 40 30 39 c17 21 28 41 24 45 -3 3 -1 6 5 6 7 0 12 -7 12
-16 0 -8 4 -13 9 -10 11 7 23 -22 14 -36 -3 -6 -1 -8 4 -5 12 8 26 -20 17 -34
-3 -5 3 -9 13 -9 15 0 16 -2 3 -10 -13 -8 -12 -10 3 -10 16 0 17 20 17 290 l0
290 -310 0 -310 0 0 -320z m320 299 c0 -5 4 -7 10 -4 6 4 7 -1 3 -11 -4 -12
-3 -15 5 -10 8 5 10 1 5 -10 -4 -12 -3 -15 5 -10 8 5 10 1 5 -10 -4 -12 -3
-15 5 -10 8 5 10 1 5 -10 -4 -12 -3 -15 5 -10 8 5 10 2 6 -8 -3 -9 -1 -16 6
-16 6 0 8 -4 5 -10 -3 -5 -1 -10 5 -10 6 0 8 -4 5 -10 -3 -5 -1 -10 5 -10 6 0
8 -4 5 -10 -3 -5 -1 -10 5 -10 6 0 8 -4 5 -10 -3 -5 -1 -10 5 -10 6 0 8 -4 5
-10 -3 -5 2 -10 12 -10 15 0 16 -2 3 -10 -12 -8 -12 -10 5 -10 17 0 17 -2 5
-10 -12 -8 -12 -10 5 -10 17 0 17 -2 5 -10 -12 -8 -12 -10 5 -10 17 0 17 -2 5
-10 -11 -7 -11 -10 -2 -10 7 0 10 -4 7 -10 -3 -6 -2 -10 4 -10 6 0 7 -7 4 -17
-4 -10 -2 -14 4 -10 5 3 10 0 10 -8 0 -18 -26 0 -140 100 -61 53 -86 82 -83
93 2 9 10 50 16 90 7 39 16 72 21 72 5 0 9 -5 9 -11z m-136 -262 c-3 -9 27
-37 81 -76 47 -34 85 -65 85 -69 0 -6 -303 -182 -314 -182 -2 0 18 52 46 117
27 64 47 122 44 130 -4 8 -1 11 5 7 7 -4 9 0 5 13 -10 30 10 73 33 73 13 0 18
-5 15 -13z"/>
</g>
</svg>
