<svg xmlns="http://www.w3.org/2000/svg" xmlns:xlink="http://www.w3.org/1999/xlink" width="1280" zoomAndPan="magnify" viewBox="0 0 960 959.999988" height="1280" preserveAspectRatio="xMidYMid meet" version="1.0"><defs><g/></defs><g fill="#ffffff" fill-opacity="1"><g transform="translate(108.58535, 608.624987)"><g><path d="M 32.734375 0 L 32.734375 -409.265625 L 221 -409.265625 C 241.738281 -409.265625 259.539062 -406.601562 274.40625 -401.28125 C 289.28125 -395.957031 301.488281 -388.929688 311.03125 -380.203125 C 320.582031 -371.472656 328.15625 -361.851562 333.75 -351.34375 C 339.34375 -340.84375 343.226562 -330.476562 345.40625 -320.25 C 347.59375 -310.019531 348.6875 -300.8125 348.6875 -292.625 C 348.6875 -284.4375 347.59375 -275.226562 345.40625 -265 C 343.226562 -254.769531 339.34375 -244.535156 333.75 -234.296875 C 328.15625 -224.066406 320.582031 -214.585938 311.03125 -205.859375 C 301.488281 -197.128906 289.347656 -190.035156 274.609375 -184.578125 C 259.878906 -179.117188 242.007812 -176.253906 221 -175.984375 L 209.140625 -175.984375 C 203.128906 -175.984375 200.394531 -175.023438 200.9375 -173.109375 C 201.488281 -171.203125 204.222656 -168.34375 209.140625 -164.53125 C 220.597656 -155.519531 232.257812 -143.507812 244.125 -128.5 C 256 -113.5 269.4375 -95.90625 284.4375 -75.71875 C 292.894531 -64.53125 301.828125 -53.890625 311.234375 -43.796875 C 320.648438 -33.703125 329.65625 -24.898438 338.25 -17.390625 C 346.851562 -9.890625 354.15625 -4.09375 360.15625 0 L 313.90625 0 C 304.351562 -5.726562 294.53125 -13.976562 284.4375 -24.75 C 274.34375 -35.53125 264.25 -47.601562 254.15625 -60.96875 C 244.0625 -74.34375 234.035156 -87.710938 224.078125 -101.078125 C 214.117188 -114.453125 204.363281 -126.800781 194.8125 -138.125 C 185.257812 -149.445312 175.976562 -158.585938 166.96875 -165.546875 C 157.96875 -172.503906 149.378906 -175.984375 141.203125 -175.984375 L 104.765625 -175.984375 L 104.765625 -184.171875 L 184.984375 -184.171875 C 225.910156 -184.171875 256.945312 -193.921875 278.09375 -213.421875 C 299.238281 -232.929688 309.8125 -259.332031 309.8125 -292.625 C 309.8125 -325.914062 299.238281 -352.3125 278.09375 -371.8125 C 256.945312 -391.320312 225.910156 -401.078125 184.984375 -401.078125 L 86.765625 -401.078125 C 79.398438 -401.078125 73.941406 -399.578125 70.390625 -396.578125 C 66.847656 -393.578125 65.078125 -386.484375 65.078125 -375.296875 C 65.078125 -373.660156 65.078125 -367.179688 65.078125 -355.859375 C 65.078125 -344.535156 65.078125 -329.800781 65.078125 -311.65625 C 65.078125 -293.507812 65.078125 -273.382812 65.078125 -251.28125 C 65.078125 -229.1875 65.144531 -206.472656 65.28125 -183.140625 C 65.414062 -159.816406 65.484375 -137.238281 65.484375 -115.40625 C 65.484375 -93.582031 65.484375 -74.003906 65.484375 -56.671875 C 65.484375 -39.347656 65.484375 -25.570312 65.484375 -15.34375 C 65.484375 -5.113281 65.484375 0 65.484375 0 Z M 32.734375 0 "/></g></g></g><g fill="#ffffff" fill-opacity="1"><g transform="translate(476.925443, 608.624987)"><g><path d="M 22.515625 -86.359375 C 22.515625 -97.265625 25.582031 -106.128906 31.71875 -112.953125 C 37.851562 -119.773438 44.878906 -123.1875 52.796875 -123.1875 C 59.066406 -123.1875 64.929688 -120.867188 70.390625 -116.234375 C 64.390625 -114.316406 60.160156 -110.90625 57.703125 -106 C 55.242188 -101.09375 54.015625 -95.5 54.015625 -89.21875 C 54.015625 -78.300781 57.765625 -67.519531 65.265625 -56.875 C 72.773438 -46.238281 82.941406 -36.625 95.765625 -28.03125 C 108.585938 -19.4375 123.253906 -12.613281 139.765625 -7.5625 C 156.273438 -2.519531 173.53125 0 191.53125 0 C 209.269531 0 226.1875 -2.179688 242.28125 -6.546875 C 258.382812 -10.910156 272.78125 -17.390625 285.46875 -25.984375 C 298.15625 -34.578125 308.113281 -45.21875 315.34375 -57.90625 C 322.570312 -70.59375 326.1875 -85.394531 326.1875 -102.3125 C 326.1875 -119.226562 322.84375 -133.28125 316.15625 -144.46875 C 309.46875 -155.65625 300.328125 -164.585938 288.734375 -171.265625 C 277.140625 -177.953125 263.90625 -183.273438 249.03125 -187.234375 C 234.164062 -191.191406 218.476562 -194.46875 201.96875 -197.0625 C 185.46875 -199.65625 169.03125 -202.316406 152.65625 -205.046875 C 136.28125 -207.773438 120.65625 -211.320312 105.78125 -215.6875 C 90.914062 -220.050781 77.6875 -225.914062 66.09375 -233.28125 C 54.5 -240.644531 45.359375 -250.257812 38.671875 -262.125 C 31.992188 -274 28.65625 -288.941406 28.65625 -306.953125 C 28.65625 -326.867188 33.425781 -343.851562 42.96875 -357.90625 C 52.519531 -371.957031 65.207031 -383.347656 81.03125 -392.078125 C 96.851562 -400.804688 114.382812 -407.21875 133.625 -411.3125 C 152.863281 -415.40625 172.03125 -417.453125 191.125 -417.453125 C 207.5 -417.453125 224.414062 -416.15625 241.875 -413.5625 C 259.332031 -410.96875 275.703125 -406.804688 290.984375 -401.078125 C 306.265625 -395.347656 318.609375 -387.976562 328.015625 -378.96875 C 337.429688 -369.96875 342.140625 -358.921875 342.140625 -345.828125 C 342.140625 -339.554688 340.910156 -334.03125 338.453125 -329.25 C 336.003906 -324.476562 331.78125 -321 325.78125 -318.8125 C 321.957031 -337.914062 313.085938 -354.148438 299.171875 -367.515625 C 285.253906 -380.890625 268.269531 -391.191406 248.21875 -398.421875 C 228.164062 -405.648438 206.816406 -409.265625 184.171875 -409.265625 C 145.421875 -409.265625 114.65625 -400.671875 91.875 -383.484375 C 69.09375 -366.296875 57.703125 -341.46875 57.703125 -309 C 57.703125 -294.8125 61.863281 -283.488281 70.1875 -275.03125 C 78.507812 -266.570312 89.765625 -259.816406 103.953125 -254.765625 C 118.140625 -249.722656 134.097656 -245.5625 151.828125 -242.28125 C 169.566406 -239.007812 187.847656 -235.800781 206.671875 -232.65625 C 225.503906 -229.519531 243.785156 -225.425781 261.515625 -220.375 C 279.253906 -215.332031 295.21875 -208.515625 309.40625 -199.921875 C 323.59375 -191.328125 334.847656 -180.140625 343.171875 -166.359375 C 351.492188 -152.585938 355.65625 -135.0625 355.65625 -113.78125 C 355.65625 -93.039062 351.015625 -74.960938 341.734375 -59.546875 C 332.460938 -44.128906 319.976562 -31.441406 304.28125 -21.484375 C 288.59375 -11.523438 270.992188 -4.09375 251.484375 0.8125 C 231.984375 5.726562 212 8.1875 191.53125 8.1875 C 158.25 8.1875 128.851562 4.234375 103.34375 -3.671875 C 77.832031 -11.585938 57.984375 -22.707031 43.796875 -37.03125 C 29.609375 -51.363281 22.515625 -67.804688 22.515625 -86.359375 Z M 22.515625 -86.359375 "/></g></g></g></svg>